<svg width="375.36875px" height="243.2px" xmlns="http://www.w3.org/2000/svg" viewBox="62.31562500000001 -46.599999999999994 375.36875 243.2" style="background: rgb(0, 0, 0);" preserveAspectRatio="xMidYMid"><defs><linearGradient id="editing-glowing-gradient" x1="0" x2="1" y1="0.5" y2="0.5"><stop offset="0" stop-color="#ffffff"></stop><stop offset="1" stop-color="#ffffff"></stop></linearGradient><filter id="editing-glowing" x="-100%" y="-100%" width="300%" height="300%"><feGaussianBlur in="SourceGraphic" result="blur" stdDeviation="4"></feGaussianBlur><feMerge><feMergeNode in="blur"></feMergeNode><feMergeNode in="SourceGraphic"></feMergeNode></feMerge></filter></defs><g filter="url(#editing-glowing)"><g transform="translate(118.41498446464539, 99.63999843597412)"><path d="M16.64 0.64L6.72 0.64L6.72 0.64Q5.18 0.64 4.48-0.06L4.48-0.06L4.48-0.06Q3.78-0.77 3.78-2.30L3.78-2.30L3.78-43.78L3.78-43.78Q3.78-45.31 4.48-46.02L4.48-46.02L4.48-46.02Q5.18-46.72 6.72-46.72L6.72-46.72L26.30-46.72L26.30-46.72Q30.85-46.72 33.92-45.76L33.92-45.76L33.92-45.76Q36.99-44.80 38.78-43.07L38.78-43.07L38.78-43.07Q40.58-41.34 41.31-38.91L41.31-38.91L41.31-38.91Q42.05-36.48 42.05-33.60L42.05-33.60L42.05-25.41L42.05-25.41Q42.05-22.53 41.31-20.10L41.31-20.10L41.31-20.10Q40.58-17.66 38.78-15.94L38.78-15.94L38.78-15.94Q36.99-14.21 33.92-13.25L33.92-13.25L33.92-13.25Q30.85-12.29 26.30-12.29L26.30-12.29L19.58-12.29L19.58-2.30L19.58-2.30Q19.58-0.77 18.88-0.06L18.88-0.06L18.88-0.06Q18.18 0.64 16.64 0.64L16.64 0.64ZM6.72 0L16.64 0L16.64 0Q17.86 0 18.40-0.54L18.40-0.54L18.40-0.54Q18.94-1.09 18.94-2.30L18.94-2.30L18.94-12.93L26.30-12.93L26.30-12.93Q35.01-12.93 38.21-16.38L38.21-16.38L38.21-16.38Q41.41-19.84 41.41-25.41L41.41-25.41L41.41-33.60L41.41-33.60Q41.41-39.17 38.21-42.62L38.21-42.62L38.21-42.62Q35.01-46.08 26.30-46.08L26.30-46.08L6.72-46.08L6.72-46.08Q5.50-46.08 4.96-45.54L4.96-45.54L4.96-45.54Q4.42-44.99 4.42-43.78L4.42-43.78L4.42-2.30L4.42-2.30Q4.42-1.09 4.96-0.54L4.96-0.54L4.96-0.54Q5.50 0 6.72 0L6.72 0ZM25.41-18.37L25.41-18.37L12.22-18.37L12.22-5.76L11.58-5.76L11.58-40.32L25.41-40.32L25.41-40.32Q28.42-40.32 30.30-39.65L30.30-39.65L30.30-39.65Q32.19-38.98 33.22-37.82L33.22-37.82L33.22-37.82Q34.24-36.67 34.62-35.07L34.62-35.07L34.62-35.07Q35.01-33.47 35.01-31.62L35.01-31.62L35.01-26.88L35.01-26.88Q35.01-25.02 34.62-23.46L34.62-23.46L34.62-23.46Q34.24-21.89 33.22-20.77L33.22-20.77L33.22-20.77Q32.19-19.65 30.30-19.01L30.30-19.01L30.30-19.01Q28.42-18.37 25.41-18.37ZM12.22-39.68L12.22-19.01L25.41-19.01L25.41-19.01Q28.22-19.01 29.98-19.58L29.98-19.58L29.98-19.58Q31.74-20.16 32.70-21.22L32.70-21.22L32.70-21.22Q33.66-22.27 34.02-23.71L34.02-23.71L34.02-23.71Q34.37-25.15 34.37-26.88L34.37-26.88L34.37-31.62L34.37-31.62Q34.37-33.34 34.02-34.82L34.02-34.82L34.02-34.82Q33.66-36.29 32.70-37.38L32.70-37.38L32.70-37.38Q31.74-38.46 29.98-39.07L29.98-39.07L29.98-39.07Q28.22-39.68 25.41-39.68L25.41-39.68L12.22-39.68ZM18.82-24.45L18.82-34.11L24.58-34.11L24.58-34.11Q26.43-34.11 27.01-33.15L27.01-33.15L27.01-33.15Q27.58-32.19 27.58-30.98L27.58-30.98L27.58-27.58L27.58-27.58Q27.58-26.37 27.01-25.41L27.01-25.41L27.01-25.41Q26.43-24.45 24.58-24.45L24.58-24.45L18.82-24.45ZM24.58-33.47L24.58-33.47L19.46-33.47L19.46-25.09L24.58-25.09L24.58-25.09Q26.05-25.09 26.50-25.86L26.50-25.86L26.50-25.86Q26.94-26.62 26.94-27.58L26.94-27.58L26.94-30.98L26.94-30.98Q26.94-31.94 26.50-32.70L26.50-32.70L26.50-32.70Q26.05-33.47 24.58-33.47ZM87.74-33.92L87.74-33.92L87.74-12.10L87.74-12.10Q87.74-9.09 86.91-6.56L86.91-6.56L86.91-6.56Q86.08-4.03 83.81-2.24L83.81-2.24L83.81-2.24Q81.54-0.45 77.54 0.58L77.54 0.58L77.54 0.58Q73.54 1.60 67.26 1.60L67.26 1.60L67.26 1.60Q60.99 1.60 56.99 0.58L56.99 0.58L56.99 0.58Q52.99-0.45 50.72-2.24L50.72-2.24L50.72-2.24Q48.45-4.03 47.58-6.56L47.58-6.56L47.58-6.56Q46.72-9.09 46.72-12.10L46.72-12.10L46.72-33.92L46.72-33.92Q46.72-36.93 47.58-39.46L47.58-39.46L47.58-39.46Q48.45-41.98 50.72-43.81L50.72-43.81L50.72-43.81Q52.99-45.63 56.99-46.66L56.99-46.66L56.99-46.66Q60.99-47.68 67.26-47.68L67.26-47.68L67.26-47.68Q73.54-47.68 77.54-46.66L77.54-46.66L77.54-46.66Q81.54-45.63 83.81-43.81L83.81-43.81L83.81-43.81Q86.08-41.98 86.91-39.46L86.91-39.46L86.91-39.46Q87.74-36.93 87.74-33.92ZM87.10-12.10L87.10-12.10L87.10-33.92L87.10-33.92Q87.10-36.86 86.24-39.26L86.24-39.26L86.24-39.26Q85.38-41.66 83.17-43.39L83.17-43.39L83.17-43.39Q80.96-45.12 77.09-46.08L77.09-46.08L77.09-46.08Q73.22-47.04 67.26-47.04L67.26-47.04L67.26-47.04Q61.31-47.04 57.41-46.08L57.41-46.08L57.41-46.08Q53.50-45.12 51.30-43.39L51.30-43.39L51.30-43.39Q49.09-41.66 48.22-39.26L48.22-39.26L48.22-39.26Q47.36-36.86 47.36-33.92L47.36-33.92L47.36-12.10L47.36-12.10Q47.36-9.15 48.22-6.75L48.22-6.75L48.22-6.75Q49.09-4.35 51.30-2.66L51.30-2.66L51.30-2.66Q53.50-0.96 57.41 0L57.41 0L57.41 0Q61.31 0.96 67.26 0.96L67.26 0.96L67.26 0.96Q73.22 0.96 77.09 0L77.09 0L77.09 0Q80.96-0.96 83.17-2.66L83.17-2.66L83.17-2.66Q85.38-4.35 86.24-6.75L86.24-6.75L86.24-6.75Q87.10-9.15 87.10-12.10ZM80.13-32.45L80.13-13.57L80.13-13.57Q80.13-9.73 77.38-7.33L77.38-7.33L77.38-7.33Q74.62-4.93 67.14-4.93L67.14-4.93L67.14-4.93Q59.65-4.93 56.96-7.33L56.96-7.33L56.96-7.33Q54.27-9.73 54.27-13.57L54.27-13.57L54.27-32.45L54.27-32.45Q54.27-36.29 56.96-38.69L56.96-38.69L56.96-38.69Q59.65-41.09 67.14-41.09L67.14-41.09L67.14-41.09Q74.62-41.09 77.38-38.69L77.38-38.69L77.38-38.69Q80.13-36.29 80.13-32.45L80.13-32.45ZM54.91-32.45L54.91-13.57L54.91-13.57Q54.91-9.98 57.47-7.78L57.47-7.78L57.47-7.78Q60.03-5.57 67.14-5.57L67.14-5.57L67.14-5.57Q74.24-5.57 76.86-7.78L76.86-7.78L76.86-7.78Q79.49-9.98 79.49-13.57L79.49-13.57L79.49-32.45L79.49-32.45Q79.49-36.03 76.86-38.24L76.86-38.24L76.86-38.24Q74.24-40.45 67.14-40.45L67.14-40.45L67.14-40.45Q60.03-40.45 57.47-38.24L57.47-38.24L57.47-38.24Q54.91-36.03 54.91-32.45L54.91-32.45ZM61.89-14.40L61.89-14.40L61.89-31.62L61.89-31.62Q61.89-32.83 62.85-33.70L62.85-33.70L62.85-33.70Q63.81-34.56 67.26-34.56L67.26-34.56L67.26-34.56Q70.72-34.56 71.68-33.70L71.68-33.70L71.68-33.70Q72.64-32.83 72.64-31.62L72.64-31.62L72.64-14.40L72.64-14.40Q72.64-13.12 71.68-12.26L71.68-12.26L71.68-12.26Q70.72-11.39 67.26-11.39L67.26-11.39L67.26-11.39Q63.81-11.39 62.85-12.26L62.85-12.26L62.85-12.26Q61.89-13.12 61.89-14.40ZM62.53-31.62L62.53-31.62L62.53-14.40L62.53-14.40Q62.53-13.25 63.52-12.64L63.52-12.64L63.52-12.64Q64.51-12.03 67.26-12.03L67.26-12.03L67.26-12.03Q70.02-12.03 71.01-12.64L71.01-12.64L71.01-12.64Q72-13.25 72-14.40L72-14.40L72-31.62L72-31.62Q72-32.70 71.01-33.31L71.01-33.31L71.01-33.31Q70.02-33.92 67.26-33.92L67.26-33.92L67.26-33.92Q64.58-33.92 63.55-33.31L63.55-33.31L63.55-33.31Q62.53-32.70 62.53-31.62ZM123.78 0.64L96.51 0.64L96.51 0.64Q94.98 0.64 94.27-0.06L94.27-0.06L94.27-0.06Q93.57-0.77 93.57-2.30L93.57-2.30L93.57-9.92L93.57-9.92Q93.57-11.46 94.27-12.16L94.27-12.16L94.27-12.16Q94.98-12.86 96.51-12.86L96.51-12.86L102.21-12.86L102.21-33.09L96.51-33.09L96.51-33.09Q94.98-33.09 94.27-33.79L94.27-33.79L94.27-33.79Q93.57-34.50 93.57-36.03L93.57-36.03L93.57-43.78L93.57-43.78Q93.57-45.31 94.27-46.02L94.27-46.02L94.27-46.02Q94.98-46.72 96.51-46.72L96.51-46.72L123.78-46.72L123.78-46.72Q125.31-46.72 126.02-46.02L126.02-46.02L126.02-46.02Q126.72-45.31 126.72-43.78L126.72-43.78L126.72-36.03L126.72-36.03Q126.72-34.50 126.02-33.79L126.02-33.79L126.02-33.79Q125.31-33.09 123.78-33.09L123.78-33.09L118.21-33.09L118.21-12.86L123.78-12.86L123.78-12.86Q125.31-12.86 126.02-12.16L126.02-12.16L126.02-12.16Q126.72-11.46 126.72-9.92L126.72-9.92L126.72-2.30L126.72-2.30Q126.72-0.77 126.02-0.06L126.02-0.06L126.02-0.06Q125.31 0.64 123.78 0.64L123.78 0.64ZM96.51 0L96.51 0L123.78 0L123.78 0Q124.99 0 125.54-0.54L125.54-0.54L125.54-0.54Q126.08-1.09 126.08-2.30L126.08-2.30L126.08-9.92L126.08-9.92Q126.08-11.14 125.54-11.68L125.54-11.68L125.54-11.68Q124.99-12.22 123.78-12.22L123.78-12.22L117.57-12.22L117.57-33.73L123.78-33.73L123.78-33.73Q124.99-33.73 125.54-34.27L125.54-34.27L125.54-34.27Q126.08-34.82 126.08-36.03L126.08-36.03L126.08-43.78L126.08-43.78Q126.08-44.99 125.54-45.54L125.54-45.54L125.54-45.54Q124.99-46.08 123.78-46.08L123.78-46.08L96.51-46.08L96.51-46.08Q95.30-46.08 94.75-45.54L94.75-45.54L94.75-45.54Q94.21-44.99 94.21-43.78L94.21-43.78L94.21-36.03L94.21-36.03Q94.21-34.82 94.75-34.27L94.75-34.27L94.75-34.27Q95.30-33.73 96.51-33.73L96.51-33.73L102.85-33.73L102.85-12.22L96.51-12.22L96.51-12.22Q95.30-12.22 94.75-11.68L94.75-11.68L94.75-11.68Q94.21-11.14 94.21-9.92L94.21-9.92L94.21-2.30L94.21-2.30Q94.21-1.09 94.75-0.54L94.75-0.54L94.75-0.54Q95.30 0 96.51 0ZM120.32-6.40L120.32-5.76L99.97-5.76L99.97-6.40L109.89-6.40L109.89-39.68L99.97-39.68L99.97-40.32L120.32-40.32L120.32-39.68L110.53-39.68L110.53-6.40L120.32-6.40ZM142.40-39.81L142.40-39.81L165.95-13.31L165.95-40.32L166.59-40.32L166.59-5.76L165.95-5.76L165.95-12.35L141.76-39.49L141.76-39.49Q141.70-39.55 141.60-39.62L141.60-39.62L141.60-39.62Q141.50-39.68 141.44-39.68L141.44-39.68L141.44-39.68Q141.38-39.68 141.34-39.62L141.34-39.62L141.34-39.62Q141.31-39.55 141.31-39.49L141.31-39.49L141.31-5.76L140.67-5.76L140.67-39.62L140.67-39.62Q140.67-40 140.93-40.19L140.93-40.19L140.93-40.19Q141.18-40.38 141.44-40.38L141.44-40.38L141.44-40.38Q141.70-40.38 141.89-40.26L141.89-40.26L141.89-40.26Q142.08-40.13 142.40-39.81ZM136.26 0L145.86 0L145.86 0Q147.07 0 147.62-0.54L147.62-0.54L147.62-0.54Q148.16-1.09 148.16-2.30L148.16-2.30L148.16-23.42L159.10-10.18L159.10-2.30L159.10-2.30Q159.10-1.09 159.65-0.54L159.65-0.54L159.65-0.54Q160.19 0 161.41 0L161.41 0L171.01 0L171.01 0Q172.22 0 172.77-0.54L172.77-0.54L172.77-0.54Q173.31-1.09 173.31-2.30L173.31-2.30L173.31-43.78L173.31-43.78Q173.31-44.99 172.77-45.54L172.77-45.54L172.77-45.54Q172.22-46.08 171.01-46.08L171.01-46.08L161.41-46.08L161.41-46.08Q160.19-46.08 159.65-45.54L159.65-45.54L159.65-45.54Q159.10-44.99 159.10-43.78L159.10-43.78L159.10-30.14L146.69-44.35L146.69-44.35Q145.86-45.31 144.99-45.70L144.99-45.70L144.99-45.70Q144.13-46.08 142.91-46.08L142.91-46.08L136.26-46.08L136.26-46.08Q135.04-46.08 134.50-45.54L134.50-45.54L134.50-45.54Q133.95-44.99 133.95-43.78L133.95-43.78L133.95-2.30L133.95-2.30Q133.95-1.09 134.50-0.54L134.50-0.54L134.50-0.54Q135.04 0 136.26 0L136.26 0ZM145.86 0.64L145.86 0.64L136.26 0.64L136.26 0.64Q134.72 0.64 134.02-0.06L134.02-0.06L134.02-0.06Q133.31-0.77 133.31-2.30L133.31-2.30L133.31-43.78L133.31-43.78Q133.31-45.31 134.02-46.02L134.02-46.02L134.02-46.02Q134.72-46.72 136.26-46.72L136.26-46.72L142.91-46.72L142.91-46.72Q144.32-46.72 145.28-46.27L145.28-46.27L145.28-46.27Q146.24-45.82 147.20-44.80L147.20-44.80L158.46-31.94L158.46-43.78L158.46-43.78Q158.46-45.31 159.17-46.02L159.17-46.02L159.17-46.02Q159.87-46.72 161.41-46.72L161.41-46.72L171.01-46.72L171.01-46.72Q172.54-46.72 173.25-46.02L173.25-46.02L173.25-46.02Q173.95-45.31 173.95-43.78L173.95-43.78L173.95-2.30L173.95-2.30Q173.95-0.77 173.25-0.06L173.25-0.06L173.25-0.06Q172.54 0.64 171.01 0.64L171.01 0.64L161.41 0.64L161.41 0.64Q159.87 0.64 159.17-0.06L159.17-0.06L159.17-0.06Q158.46-0.77 158.46-2.30L158.46-2.30L158.46-9.92L148.80-21.63L148.80-2.30L148.80-2.30Q148.80-0.77 148.10-0.06L148.10-0.06L148.10-0.06Q147.39 0.64 145.86 0.64ZM203.90 0.64L193.54 0.64L193.54 0.64Q192 0.64 191.30-0.06L191.30-0.06L191.30-0.06Q190.59-0.77 190.59-2.30L190.59-2.30L190.59-33.09L181.82-33.09L181.82-33.09Q180.29-33.09 179.58-33.79L179.58-33.79L179.58-33.79Q178.88-34.50 178.88-36.03L178.88-36.03L178.88-43.78L178.88-43.78Q178.88-45.31 179.58-46.02L179.58-46.02L179.58-46.02Q180.29-46.72 181.82-46.72L181.82-46.72L215.62-46.72L215.62-46.72Q217.15-46.72 217.86-46.02L217.86-46.02L217.86-46.02Q218.56-45.31 218.56-43.78L218.56-43.78L218.56-36.03L218.56-36.03Q218.56-34.50 217.86-33.79L217.86-33.79L217.86-33.79Q217.15-33.09 215.62-33.09L215.62-33.09L206.85-33.09L206.85-2.30L206.85-2.30Q206.85-0.77 206.14-0.06L206.14-0.06L206.14-0.06Q205.44 0.64 203.90 0.64L203.90 0.64ZM193.54 0L203.90 0L203.90 0Q205.12 0 205.66-0.54L205.66-0.54L205.66-0.54Q206.21-1.09 206.21-2.30L206.21-2.30L206.21-33.73L215.62-33.73L215.62-33.73Q216.83-33.73 217.38-34.27L217.38-34.27L217.38-34.27Q217.92-34.82 217.92-36.03L217.92-36.03L217.92-43.78L217.92-43.78Q217.92-44.99 217.38-45.54L217.38-45.54L217.38-45.54Q216.83-46.08 215.62-46.08L215.62-46.08L181.82-46.08L181.82-46.08Q180.61-46.08 180.06-45.54L180.06-45.54L180.06-45.54Q179.52-44.99 179.52-43.78L179.52-43.78L179.52-36.03L179.52-36.03Q179.52-34.82 180.06-34.27L180.06-34.27L180.06-34.27Q180.61-33.73 181.82-33.73L181.82-33.73L191.23-33.73L191.23-2.30L191.23-2.30Q191.23-1.09 191.78-0.54L191.78-0.54L191.78-0.54Q192.32 0 193.54 0L193.54 0ZM199.04-5.76L198.40-5.76L198.40-39.68L185.28-39.68L185.28-40.32L212.16-40.32L212.16-39.68L199.04-39.68L199.04-5.76ZM259.39-17.98L259.39-11.26L259.39-11.26Q259.39-5.50 255.68-2.43L255.68-2.43L255.68-2.43Q251.97 0.64 245.50 0.64L245.50 0.64L225.28 0.64L225.28 0.64Q223.74 0.64 223.04-0.06L223.04-0.06L223.04-0.06Q222.34-0.77 222.34-2.30L222.34-2.30L222.34-9.79L222.34-9.79Q222.34-11.33 223.04-12.03L223.04-12.03L223.04-12.03Q223.74-12.74 225.28-12.74L225.28-12.74L242.50-12.74L242.50-12.74Q243.01-12.74 243.26-13.12L243.26-13.12L243.26-13.12Q243.52-13.50 243.52-13.95L243.52-13.95L243.52-13.95Q243.52-14.66 243.26-15.04L243.26-15.04L243.26-15.04Q243.01-15.42 242.43-15.49L242.43-15.49L232.83-16.83L232.83-16.83Q228.03-17.54 225.18-20L225.18-20L225.18-20Q222.34-22.46 222.34-28.10L222.34-28.10L222.34-34.82L222.34-34.82Q222.34-40.58 226.02-43.65L226.02-43.65L226.02-43.65Q229.70-46.72 236.22-46.72L236.22-46.72L254.14-46.72L254.14-46.72Q255.68-46.72 256.38-46.02L256.38-46.02L256.38-46.02Q257.09-45.31 257.09-43.78L257.09-43.78L257.09-36.16L257.09-36.16Q257.09-34.62 256.38-33.92L256.38-33.92L256.38-33.92Q255.68-33.22 254.14-33.22L254.14-33.22L239.23-33.22L239.23-33.22Q238.72-33.22 238.43-32.83L238.43-32.83L238.43-32.83Q238.14-32.45 238.14-31.94L238.14-31.94L238.14-31.94Q238.14-31.36 238.43-30.98L238.43-30.98L238.43-30.98Q238.72-30.59 239.30-30.53L239.30-30.53L248.83-29.25L248.83-29.25Q253.63-28.54 256.51-26.08L256.51-26.08L256.51-26.08Q259.39-23.62 259.39-17.98L259.39-17.98ZM225.28 0L245.50 0L245.50 0Q251.65 0 255.20-2.91L255.20-2.91L255.20-2.91Q258.75-5.82 258.75-11.26L258.75-11.26L258.75-17.98L258.75-17.98Q258.75-23.36 256-25.66L256-25.66L256-25.66Q253.25-27.97 248.77-28.61L248.77-28.61L239.23-29.89L239.23-29.89Q238.40-29.95 237.95-30.53L237.95-30.53L237.95-30.53Q237.50-31.10 237.50-31.94L237.50-31.94L237.50-31.94Q237.50-32.77 237.95-33.31L237.95-33.31L237.95-33.31Q238.40-33.86 239.23-33.86L239.23-33.86L254.14-33.86L254.14-33.86Q255.36-33.86 255.90-34.40L255.90-34.40L255.90-34.40Q256.45-34.94 256.45-36.16L256.45-36.16L256.45-43.78L256.45-43.78Q256.45-44.99 255.90-45.54L255.90-45.54L255.90-45.54Q255.36-46.08 254.14-46.08L254.14-46.08L236.22-46.08L236.22-46.08Q230.02-46.08 226.50-43.17L226.50-43.17L226.50-43.17Q222.98-40.26 222.98-34.82L222.98-34.82L222.98-28.10L222.98-28.10Q222.98-22.72 225.70-20.42L225.70-20.42L225.70-20.42Q228.42-18.11 232.90-17.47L232.90-17.47L242.50-16.13L242.50-16.13Q243.33-16.06 243.74-15.55L243.74-15.55L243.74-15.55Q244.16-15.04 244.16-13.95L244.16-13.95L244.16-13.95Q244.16-13.18 243.74-12.64L243.74-12.64L243.74-12.64Q243.33-12.10 242.50-12.10L242.50-12.10L225.28-12.10L225.28-12.10Q224.06-12.10 223.52-11.55L223.52-11.55L223.52-11.55Q222.98-11.01 222.98-9.79L222.98-9.79L222.98-2.30L222.98-2.30Q222.98-1.09 223.52-0.54L223.52-0.54L223.52-0.54Q224.06 0 225.28 0L225.28 0ZM236.48-40.32L250.69-40.32L250.69-39.68L236.48-39.68L236.48-39.68Q233.79-39.68 232.19-38.21L232.19-38.21L232.19-38.21Q230.59-36.74 230.59-34.50L230.59-34.50L230.59-29.25L230.59-29.25Q230.59-27.01 231.49-26.11L231.49-26.11L231.49-26.11Q232.38-25.22 233.86-24.96L233.86-24.96L247.36-22.21L247.36-22.21Q249.28-21.82 250.53-20.54L250.53-20.54L250.53-20.54Q251.78-19.26 251.78-15.94L251.78-15.94L251.78-12.22L251.78-12.22Q251.78-9.41 249.86-7.58L249.86-7.58L249.86-7.58Q247.94-5.76 244.67-5.76L244.67-5.76L228.74-5.76L228.74-6.40L244.67-6.40L244.67-6.40Q247.62-6.40 249.38-8.03L249.38-8.03L249.38-8.03Q251.14-9.66 251.14-12.22L251.14-12.22L251.14-15.94L251.14-15.94Q251.14-18.94 250.08-20.06L250.08-20.06L250.08-20.06Q249.02-21.18 247.23-21.57L247.23-21.57L233.73-24.32L233.73-24.32Q232.06-24.64 231.01-25.63L231.01-25.63L231.01-25.63Q229.95-26.62 229.95-29.25L229.95-29.25L229.95-34.50L229.95-34.50Q229.95-37.06 231.74-38.69L231.74-38.69L231.74-38.69Q233.54-40.32 236.48-40.32L236.48-40.32Z" fill="url(#editing-glowing-gradient)"></path></g></g><style>text {
  font-size: 64px;
  font-family: Arial Black;
  dominant-baseline: central;
  text-anchor: middle;
}</style></svg>